<?xml version="1.0" encoding="UTF-8"?>
<!--
  app-icon-source.svg
  Canonical 1024×1024 source for the iExtend springboard icon.
  iOS 17+ applies its own corner mask, so this draws a full square.

  Geometry mirrors LogoGeometry.swift's panel coordinates (160×160 viewBox)
  scaled to fit ~62% of the 1024px icon, centered. If the geometry there
  changes, update the polygon points here too.
-->
<svg xmlns="http://www.w3.org/2000/svg" width="1024" height="1024" viewBox="0 0 1024 1024">
  <defs>
    <linearGradient id="bg" x1="0" y1="0" x2="1" y2="1">
      <stop offset="0%"   stop-color="#1a1530"/>
      <stop offset="100%" stop-color="#2a1a4a"/>
    </linearGradient>
    <linearGradient id="blue" x1="0" y1="0" x2="1" y2="1">
      <stop offset="0%"   stop-color="#0a84ff"/>
      <stop offset="100%" stop-color="#0050b8"/>
    </linearGradient>
    <linearGradient id="indigo" x1="0" y1="0" x2="1" y2="1">
      <stop offset="0%"   stop-color="#5e5ce6"/>
      <stop offset="100%" stop-color="#3f3d80"/>
    </linearGradient>
    <linearGradient id="purple" x1="0" y1="0" x2="1" y2="1">
      <stop offset="0%"   stop-color="#bf5af2"/>
      <stop offset="100%" stop-color="#7a3acd"/>
    </linearGradient>
    <linearGradient id="sheen" x1="0" y1="0" x2="0" y2="1">
      <stop offset="0%"   stop-color="#ffffff" stop-opacity="0.18"/>
      <stop offset="100%" stop-color="#ffffff" stop-opacity="0"/>
    </linearGradient>
    <radialGradient id="halo" cx="0.5" cy="0.5" r="0.5">
      <stop offset="0%"   stop-color="#5e5ce6" stop-opacity="0.6"/>
      <stop offset="100%" stop-color="#5e5ce6" stop-opacity="0"/>
    </radialGradient>
    <filter id="haloBlur" x="-20%" y="-20%" width="140%" height="140%">
      <feGaussianBlur stdDeviation="32"/>
    </filter>
  </defs>

  <!-- Background tile -->
  <rect width="1024" height="1024" fill="url(#bg)"/>

  <!-- Mark group: scale 160 viewBox → 640px (62% of 1024), translate to center -->
  <!-- transform: translate((1024-640)/2, (1024-640)/2) scale(640/160) -->
  <g transform="translate(192 192) scale(4)">
    <!-- Ambient halo behind panels -->
    <ellipse cx="80" cy="80" rx="80" ry="50" fill="url(#halo)" filter="url(#haloBlur)"/>

    <!-- Panel 1: blue -->
    <polygon points="34,42 88,30 96,118 38,108" fill="url(#blue)"/>
    <!-- Sheen on panel 1 -->
    <polygon points="34,42 88,30 96,118 38,108" fill="url(#sheen)"/>

    <!-- Panel 2: indigo -->
    <polygon points="88,30 122,52 122,128 96,118" fill="url(#indigo)"/>

    <!-- Panel 3: purple -->
    <polygon points="122,52 138,76 134,134 122,128" fill="url(#purple)"/>

    <!-- Crease lines -->
    <line x1="88"  y1="30" x2="96"  y2="118" stroke="#ffffff" stroke-width="0.6" opacity="0.6"/>
    <line x1="122" y1="52" x2="122" y2="128" stroke="#ffffff" stroke-width="0.6" opacity="0.5"/>
  </g>
</svg>
